<?xml version="1.0" encoding="UTF-8"?>
<svg width="221px" height="221px" viewBox="0 0 221 221" version="1.1" xmlns="http://www.w3.org/2000/svg" xmlns:xlink="http://www.w3.org/1999/xlink">
    <!-- Generator: Sketch 54.1 (76490) - https://sketchapp.com -->
    <title>Artboard</title>
    <desc>Created with Sketch.</desc>
    <g id="Artboard" stroke="none" stroke-width="1" fill="none" fill-rule="evenodd">
        <g id="Segments-circle-Copy" transform="translate(10.000000, 10.000000)">
            <path d="M100.5,0 C136.40865,0 169.5837,19.1553 187.533,50.25 C205.4823,81.3447 205.4823,119.6553 187.533,150.75 C169.5837,181.8447 136.40865,201 100.5,201 C64.59135,201 31.4163,181.8447 13.467,150.75 C-4.4823,119.6553 -4.4823,81.3447 13.467,50.25 C31.4163,19.1553 64.59135,0 100.5,0 L100.5,25.125 C73.57605,25.125 48.69225,39.48645 35.22525,62.8125 C21.75825,86.13855 21.75825,114.86145 35.22525,138.1875 C48.69225,161.51355 73.57605,175.875 100.5,175.875 C127.42395,175.875 152.30775,161.51355 165.77475,138.1875 C179.24175,114.86145 179.24175,86.13855 165.77475,62.8125 C152.30775,39.48645 127.42395,25.125 100.5,25.125 L100.5,0 Z" id="Base-plate" fill-opacity="0.002" fill="#455A64"></path>
            <path d="M0.626954651,99.875 L24.5025697,99.875 C24.6088219,86.9601679 28.0067486,74.2857133 34.3737727,63.042578 L13.697342,51.1046851 C5.23523468,65.968565 0.734015963,82.7668736 0.626955553,99.875 Z" id="Segment-1" stroke="#FFFFFF" stroke-width="1.25" fill="#009966"></path>
            <path d="M14.3225673,50.0222834 L34.9986511,61.9599761 C41.5464749,50.8283708 50.8283708,41.5464749 61.9599767,34.9986521 L50.0222834,14.3225673 C35.2621407,22.9719866 22.9719866,35.2621407 14.3225681,50.0222838 Z" id="Segment-2" stroke="#FFFFFF" stroke-width="1.25" fill="#FFDE32"></path>
            <path d="M51.1046851,13.697342 L63.0425774,34.3737716 C74.2857133,28.0067486 86.9601679,24.6088219 99.875,24.5025709 L99.875,0.626954651 C82.7668736,0.734015963 65.968565,5.23523468 51.1046855,13.6973428 Z" id="Segment-3" stroke="#FFFFFF" stroke-width="1.25" fill="#FF9932"></path>
            <path d="M101.125,0.626954651 L101.125,24.5025697 C114.039832,24.6088219 126.714287,28.0067486 137.957422,34.3737727 L149.895315,13.697342 C135.031435,5.23523468 118.233126,0.734015963 101.125,0.626955553 Z" id="Segment-4" stroke="#FFFFFF" stroke-width="1.25" fill="#CC0032"></path>
            <path d="M150.977717,14.3225673 L139.040024,34.9986511 C150.171629,41.5464749 159.453525,50.8283708 166.001348,61.9599767 L186.677433,50.0222834 C178.028013,35.2621407 165.737859,22.9719866 150.977716,14.3225681 Z" id="Segment-5" stroke="#FFFFFF" stroke-width="1.25" fill="#660099"></path>
            <path d="M187.302658,51.1046851 L166.626228,63.0425774 C172.993251,74.2857133 176.391178,86.9601679 176.497429,99.875 L200.373045,99.875 C200.265984,82.7668736 195.764765,65.968565 187.302657,51.1046855 Z" id="Segment-6" stroke="#FFFFFF" stroke-width="1.25" fill="#67011E"></path>
        </g>
    </g>
</svg>