<?xml version="1.0" encoding="UTF-8" standalone="no"?>
<svg width="304px" height="260px" viewBox="0 0 304 260" version="1.1" xmlns="http://www.w3.org/2000/svg" xmlns:xlink="http://www.w3.org/1999/xlink">
    <title>barometerGauge</title>
    <defs>
        <polygon id="path-1" points="303.103916 0.0759272727 303.103916 259.411563 0 259.411563 0 0.0759272727"></polygon>
    </defs>
    <g id="Page-1" stroke="none" stroke-width="1" fill="none" fill-rule="evenodd">
        <g id="Icons" transform="translate(-153.000000, -863.000000)">
            <g id="Group-5" transform="translate(153.000000, 863.000000)">
                <g id="Page-1">
                    <g id="Group-3" transform="translate(0.000000, 0.420936)">
                        <mask id="mask-2" fill="white">
                            <use xlink:href="#path-1"></use>
                        </mask>
                        <g id="Clip-2"></g>
                        <path d="M152.812842,15.9650593 L151.552276,15.9587055 L151.316716,15.960294 L151.316716,0.0759272727 L152.952905,0.0806925827 L152.812842,15.9650593 Z M116.227795,20.5937637 L112.099125,5.25105394 L113.685973,4.83488353 L117.668214,20.2141273 L116.227795,20.5937637 Z M187.876297,20.8637979 C187.400402,20.7335461 186.924507,20.6048828 186.44702,20.4778078 L190.518392,5.12239057 C191.051585,5.26376143 191.581596,5.40830917 192.113198,5.55444534 L187.876297,20.8637979 Z M83.5597319,34.1685435 L75.5825173,20.423801 L76.9911037,19.6168752 L84.860088,33.4235667 L83.5597319,34.1685435 Z M220.437721,34.6895507 C220.017533,34.4401661 219.59257,34.1939585 219.166015,33.9493392 L227.103439,20.1807702 C227.585701,20.4587466 228.064779,20.736723 228.542266,21.0194647 L220.437721,34.6895507 Z M55.5169257,55.7315712 L44.2514178,44.5108546 C44.6413654,44.1216876 45.0329047,43.7325207 45.4276272,43.3465305 L56.562622,54.6959105 C56.2124649,55.0390129 55.8638995,55.3837036 55.5169257,55.7315712 L55.5169257,55.7315712 Z M248.32614,56.476548 C247.98235,56.127092 247.635376,55.7776359 247.28681,55.4329452 L258.518894,44.1772829 C258.910434,44.5664499 259.300381,44.9572053 259.687146,45.3511376 L248.32614,56.476548 Z M33.9806743,83.7801859 L20.1908524,75.8491216 C20.4693864,75.3662369 20.7511037,74.886529 21.0360042,74.4068211 L34.7207791,82.5189672 C34.4693026,82.9383145 34.2241927,83.3592502 33.9806743,83.7801859 L33.9806743,83.7801859 Z M269.639564,84.682418 L268.905826,83.4053149 L282.671774,75.4313628 C282.948716,75.9047169 283.222475,76.3812479 283.49146,76.8577789 L269.639564,84.682418 Z M20.4662031,116.424148 L5.07839162,112.360927 C5.2216377,111.824035 5.36647539,111.288732 5.51449634,110.753429 L20.8497843,115.012028 C20.7176796,115.480617 20.5903497,115.950794 20.4662031,116.424148 L20.4662031,116.424148 Z M282.902559,117.431217 L282.523753,115.99527 L297.895648,111.874865 C298.037303,112.402226 298.177365,112.931176 298.315837,113.461714 L282.902559,117.431217 Z M-0.000477486916,151.479357 L0.00588900523,149.838502 L15.9221194,149.995757 L15.9157529,151.32369 L-0.000477486916,151.479357 Z M303.097072,152.958191 L287.180842,152.815232 L287.1888,151.010768 L303.10503,151.010768 L303.097072,152.958191 Z M5.16593089,190.621613 C5.02427644,190.092664 4.88739686,189.563714 4.74892565,189.034765 L20.1606115,185.065262 L20.5394178,186.501208 L5.16593089,190.621613 Z M297.548674,192.043264 L282.213386,187.784665 L282.606517,186.350307 L297.978413,190.462769 L297.548674,192.043264 Z M20.3531979,227.081 C20.0778471,226.604469 19.804088,226.127938 19.5319204,225.64823 L33.3901822,217.833122 C33.6305173,218.260411 33.872444,218.684524 34.1191455,219.107048 L20.3531979,227.081 Z M281.985784,228.38193 L268.307376,220.257076 C268.560444,219.834552 268.808737,219.410439 269.05703,218.984738 L282.826161,226.952337 C282.549219,227.430456 282.269093,227.906987 281.985784,228.38193 L281.985784,228.38193 Z M44.4694702,258.352553 C44.0779309,257.963386 43.6895749,257.571042 43.3028105,257.177109 L54.6749571,246.064407 C55.0187476,246.415451 55.3641298,246.763319 55.7126953,247.109598 L44.4694702,258.352553 Z M257.562329,259.41204 L246.427334,248.061071 C246.779083,247.717969 247.12924,247.374867 247.476214,247.026999 L258.741721,258.247716 C258.351774,258.636883 257.958643,259.02605 257.562329,259.41204 L257.562329,259.41204 Z" id="Fill-1" fill="#010202" mask="url(#mask-2)"></path>
                    </g>
                    <path d="M162.325336,14.4174454 L160.826027,14.3094317 L161.56454,3.2142016 L163.189587,3.33174591 L162.325336,14.4174454 Z M124.863305,16.5618349 L122.717797,5.65086345 C123.250991,5.54761506 123.784184,5.44595512 124.31897,5.34747204 L126.340331,16.2806816 C125.845336,16.3712225 125.353525,16.4665287 124.863305,16.5618349 L124.863305,16.5618349 Z M197.58297,21.8433868 L196.147326,21.3477946 L199.744394,10.8244017 L201.27076,11.3517626 L197.58297,21.8433868 Z M90.7436817,28.060528 L85.8287497,18.0835572 C86.3157864,17.8437033 86.8044147,17.6070262 87.2946346,17.3735261 L92.0917864,27.4092689 C91.6413571,27.6237079 91.194111,27.8413237 90.7436817,28.060528 L90.7436817,28.060528 Z M229.674865,38.1582199 L228.425441,37.3099947 L234.640729,28.0827661 C235.089566,28.3829806 235.536813,28.686372 235.98565,28.9945287 L229.674865,38.1582199 Z M60.7622785,47.9938197 L53.4328545,39.62117 C53.8450848,39.2621833 54.2573152,38.9063735 54.6711372,38.5537406 L61.8955141,47.0185196 C61.5151162,47.3425607 61.1379016,47.6666017 60.7622785,47.9938197 L60.7622785,47.9938197 Z M256.450739,62.2198585 C256.124457,61.8386337 255.794991,61.4605858 255.465525,61.0825378 L263.85497,53.767787 C264.213085,54.1760152 264.566425,54.5842434 264.918174,54.9940601 L256.450739,62.2198585 Z M36.9277236,74.9718281 L27.6819853,68.7642176 C27.987577,68.31469 28.2931686,67.8651624 28.6003518,67.4172233 L37.774467,73.7296706 C37.4879749,74.1410757 37.2078492,74.5556577 36.9277236,74.9718281 L36.9277236,74.9718281 Z M276.11365,92.3509137 L275.45631,90.9975656 L285.450111,86.0861194 C285.688854,86.5674157 285.924415,87.0534774 286.158383,87.5379506 L276.11365,92.3509137 Z M20.9128126,107.180558 L10.3746764,103.576396 C10.549755,103.064919 10.7264251,102.555031 10.9062785,102.046731 L21.4109906,105.755731 L20.9128126,107.180558 Z M287.277294,126.530894 L286.992394,125.045706 L297.922069,122.893374 L298.229252,124.480222 L287.277294,126.530894 Z M13.855556,142.291362 L2.73011099,141.687757 L2.8478911,140.054844 L13.9542366,140.930072 L13.855556,142.291362 Z M300.245839,163.568472 L289.139493,162.707539 L289.268415,160.930078 L300.38431,161.663936 L300.245839,163.568472 Z M5.15256126,180.458319 C5.04751414,179.924604 4.94405864,179.390889 4.84696963,178.855586 L15.8005194,176.836683 C15.8928335,177.32751 15.9867393,177.816749 16.0822366,178.305987 L5.15256126,180.458319 Z M292.150844,201.573407 L281.647724,197.864408 L282.145902,196.441169 L292.684038,200.045331 C292.510551,200.556808 292.332289,201.065108 292.150844,201.573407 L292.150844,201.573407 Z M17.5910953,217.276692 C17.3507602,216.789042 17.1136084,216.299804 16.8780482,215.807388 L26.9371058,211.027782 C27.1503832,211.475722 27.366844,211.920484 27.586488,212.365246 L17.5910953,217.276692 Z M274.432896,236.1775 L265.242865,229.887291 L266.10075,228.632426 L275.340121,234.84639 L274.432896,236.1775 Z M39.1544042,249.615674 C38.7978806,249.207446 38.4429487,248.796041 38.0896084,248.383048 L46.565001,241.16678 C46.8896921,241.546416 47.2159749,241.924464 47.5454408,242.299335 L39.1544042,249.615674 Z" id="Fill-4" fill="#010202"></path>
                    <path d="M132.754413,15.2450209 L131.247146,4.22762419 C131.783523,4.15614454 132.319899,4.08466489 132.856276,4.01795055 L134.248947,15.0496432 L132.754413,15.2450209 Z M170.283292,15.2720243 L168.963837,15.0972963 L170.175062,4.0417771 L171.790559,4.25462762 L170.283292,15.2720243 Z M205.037973,24.7216341 C204.57481,24.5278448 204.111648,24.335644 203.646894,24.14662 L207.844004,13.8471967 C208.345365,14.052105 208.846727,14.2586017 209.346496,14.4682754 L205.037973,24.7216341 Z M98.0220147,24.7549913 L93.7007581,14.5063979 L95.1905173,13.888496 L99.4162764,24.1768003 L98.0220147,24.7549913 Z M236.135104,42.8647577 C235.740381,42.5581894 235.342475,42.2532096 234.942978,41.9498182 L241.680318,33.0942838 C242.11324,33.4230901 242.54457,33.753485 242.974308,34.0870567 L236.135104,42.8647577 Z M66.9376168,42.9187645 L60.1000042,34.1410635 C60.531334,33.8059034 60.9658471,33.4723317 61.4019518,33.1435253 L68.1201927,42.0149441 C67.7238785,42.3135702 67.3307476,42.6137847 66.9376168,42.9187645 L66.9376168,42.9187645 Z M261.472151,68.4369996 C261.169742,68.038302 260.864151,67.6427813 260.556968,67.248849 L269.353868,60.4249251 C269.686517,60.8522145 270.019166,61.2826809 270.347041,61.7147356 L261.472151,68.4369996 Z M41.573512,68.4767105 L32.7081717,61.7417391 L33.6917948,60.4630475 L42.5014283,67.2710871 L41.573512,68.4767105 Z M279.350852,99.6513686 L278.773093,98.2662518 L289.040653,93.9472925 C289.250748,94.4444732 289.457659,94.9416539 289.662978,95.4420114 L279.350852,99.6513686 Z M23.7234597,99.7006101 L13.4065592,95.502372 C13.6118785,95.0020145 13.8171979,94.5016569 14.0272921,94.0044762 L24.2980356,98.3091396 L23.7234597,99.7006101 Z M14.6321089,134.365064 L3.55441257,133.173736 L3.77564817,131.482051 L14.8135539,132.994243 L14.6321089,134.365064 Z M288.515418,134.412717 C288.453345,133.917124 288.388088,133.423121 288.319648,132.929117 L299.355962,131.405806 C299.430769,131.944286 299.502392,132.482766 299.570831,133.022835 L288.515418,134.412717 Z M3.73267435,171.939533 L3.5225801,170.338389 L14.5764021,168.951684 L14.7737634,170.449579 L3.73267435,171.939533 Z M299.311397,172.138087 L288.276674,170.614777 C288.345114,170.120773 288.410371,169.626769 288.472444,169.131177 L288.50746,168.859554 L299.556507,170.290736 L299.523083,170.541709 C299.457826,171.061127 299.386203,171.599607 299.311397,172.138087 L299.311397,172.138087 Z M14.0145592,209.42505 C13.8060565,208.929458 13.6007372,208.430688 13.3954178,207.931919 L23.7059518,203.720974 L24.283711,205.107679 L14.0145592,209.42505 Z M289.031104,209.602955 L278.758769,205.291938 L279.338119,203.902056 L289.651837,208.106647 C289.446517,208.605417 289.238015,209.105774 289.031104,209.602955 L289.031104,209.602955 Z M33.6711037,242.960125 C33.3400461,242.532835 33.0105801,242.103957 32.6827058,241.671903 L41.5575958,234.951227 C41.8615958,235.349925 42.1655958,235.747034 42.4743707,236.144143 L33.6711037,242.960125 Z M269.325219,243.139618 L260.53946,236.302987 C260.846643,235.907466 261.153826,235.510357 261.456235,235.111659 L270.323166,241.848219 C269.992109,242.280274 269.661051,242.71074 269.325219,243.139618 L269.325219,243.139618 Z" id="Fill-6" fill="#010202"></path>
                    <path d="M142.058563,14.288782 L141.294584,3.19672879 C141.834145,3.15860631 142.375296,3.12524914 142.916448,3.09506885 L143.549914,14.1950643 C143.053328,14.2236561 142.55515,14.2554249 142.058563,14.288782 L142.058563,14.288782 Z M179.487171,16.8477535 L178.178857,16.5856615 L180.115862,5.63339064 L181.747275,5.9606086 L179.487171,16.8477535 Z M106.757956,21.4272164 L103.137014,10.9133541 C103.647925,10.7370377 104.158836,10.5638981 104.67293,10.3939353 L108.182459,20.9475086 C107.706563,21.1047638 107.23226,21.2651959 106.757956,21.4272164 L106.757956,21.4272164 Z M213.539946,28.6291883 L212.177516,27.9572796 L217.066982,17.9660129 L218.523317,18.6855747 L213.539946,28.6291883 Z M74.5005319,37.4577193 L68.285244,28.2304907 L69.6317571,27.3362008 L75.762689,36.6206132 L74.5005319,37.4577193 Z M243.328762,48.827749 C242.956323,48.4957657 242.580699,48.1669593 242.203485,47.8397413 L249.518584,39.4496189 C249.929223,39.8086056 250.33827,40.1691807 250.745726,40.5313442 L243.328762,48.827749 Z M47.4715895,61.2366162 L39.0725948,53.9298075 C39.4323016,53.5199909 39.7920084,53.1133511 40.1548984,52.7082997 L48.4663539,60.112003 C48.1321131,60.4852857 47.7994639,60.8585683 47.4715895,61.2366162 L47.4715895,61.2366162 Z M266.868867,76.0487881 C266.596699,75.6342062 266.321349,75.2212126 266.041223,74.8098075 L275.277412,68.5894895 C275.583003,69.0406056 275.885412,69.4948984 276.186228,69.9507798 L266.868867,76.0487881 Z M27.5412859,91.1865896 L17.5283853,86.3132659 C17.7687204,85.8192621 18.0122387,85.3268467 18.2621236,84.8376082 L28.2065843,89.8491259 C27.9821654,90.2922997 27.7593382,90.7386504 27.5412859,91.1865896 L27.5412859,91.1865896 Z M282.595694,108.413185 L282.111841,106.985181 L292.646794,103.369899 L293.164071,104.896386 L282.595694,108.413185 Z M16.1213906,125.172781 L10.6318827,124.214953 L5.17261571,123.103048 L5.48139058,121.571795 L16.3999246,123.792429 L16.1213906,125.172781 Z M289.3776,143.714602 L289.280511,142.211941 L300.396406,141.447903 L300.499862,143.052224 L289.3776,143.714602 Z M2.69923351,161.926028 C2.6642178,161.387548 2.62920209,160.84748 2.59896126,160.305823 L13.721223,159.675213 C13.7498723,160.170806 13.7801131,160.666398 13.8151288,161.16199 L2.69923351,161.926028 Z M297.59515,182.046755 L286.682982,179.792764 L287.036323,178.050249 L297.953265,180.272472 L297.59515,182.046755 Z M10.4186052,200.010386 L9.90132775,198.48231 L20.4697047,194.967099 L20.9535581,196.395104 L10.4186052,200.010386 Z M284.792134,218.75235 L274.84449,213.745598 C275.068909,213.299247 275.291736,212.851308 275.512972,212.403369 L285.522689,217.283046 C285.282354,217.773873 285.038836,218.263111 284.792134,218.75235 L284.792134,218.75235 Z M27.7577466,234.793972 C27.4537466,234.344444 27.1529298,233.89174 26.8552963,233.439035 L36.1758408,227.347381 C36.4496,227.76514 36.7265424,228.18131 37.0050764,228.595892 L27.7577466,234.793972 Z M262.867527,250.872128 L254.562438,243.460482 L255.563569,242.331104 L263.945055,249.655385 C263.58694,250.063614 263.228825,250.468665 262.867527,250.872128 L262.867527,250.872128 Z" id="Fill-8" fill="#010202"></path>
                </g>
                <text id="29" font-family="Ubuntu-Light, Ubuntu" font-size="20" font-weight="300" fill="#FFFFEA">
                    <tspan x="142" y="34">30</tspan>
                </text>
                <text id="28" font-family="Ubuntu-Light, Ubuntu" font-size="20" font-weight="300" fill="#FFFFEA">
                    <tspan x="80" y="53">29.5</tspan>
                </text>
                <text id="27" font-family="Ubuntu-Light, Ubuntu" font-size="20" font-weight="300" fill="#FFFFEA">
                    <tspan x="39" y="90">29</tspan>
                </text>
                <text id="26" font-family="Ubuntu-Light, Ubuntu" font-size="20" font-weight="300" fill="#FFFFEA">
                    <tspan x="20" y="156">28.5</tspan>
                </text>
                <text id="25" font-family="Ubuntu-Light, Ubuntu" font-size="20" font-weight="300" fill="#FFFFEA">
                    <tspan x="39" y="219">28</tspan>
                </text>
                <text id="30" font-family="Ubuntu-Light, Ubuntu" font-size="20" font-weight="300" fill="#FFFFEA">
                    <tspan x="192" y="53">30.5</tspan>
                </text>
                <text id="31" font-family="Ubuntu-Light, Ubuntu" font-size="20" font-weight="300" fill="#FFFFEA">
                    <tspan x="248" y="91">31</tspan>
                </text>
                <text id="32" font-family="Ubuntu-Light, Ubuntu" font-size="20" font-weight="300" fill="#FFFFEA">
                    <tspan x="247" y="156">31.5</tspan>
                </text>
                <text id="33" font-family="Ubuntu-Light, Ubuntu" font-size="20" font-weight="300" fill="#FFFFEA">
                    <tspan x="245" y="220">32</tspan>
                </text>
            </g>
        </g>
    </g>
</svg>
